<svg xmlns="http://www.w3.org/2000/svg" version="1.1" xmlns:xlink="http://www.w3.org/1999/xlink" xmlns:svgjs="http://svgjs.dev/svgjs" width="128" height="128" viewBox="0 0 128 128"><g transform="matrix(0.8046875,0,0,0.8046875,12.333870967741937,45.40210282596183)"><svg viewBox="0 0 155 56" data-background-color="#ffffff" preserveAspectRatio="xMidYMid meet" height="46" width="128" xmlns="http://www.w3.org/2000/svg" xmlns:xlink="http://www.w3.org/1999/xlink"><g id="tight-bounds" transform="matrix(1,0,0,1,0.25,0.13628681796234332)"><svg viewBox="0 0 154.5 55.72742636407532" height="55.72742636407532" width="154.5"><g><svg viewBox="0 0 154.5 55.72742636407532" height="55.72742636407532" width="154.5"><g><svg viewBox="0 0 154.5 55.72742636407532" height="55.72742636407532" width="154.5"><g id="textblocktransform"><svg viewBox="0 0 154.5 55.72742636407532" height="55.72742636407532" width="154.5" id="textblock"><g><svg viewBox="0 0 154.5 55.72742636407532" height="55.72742636407532" width="154.5"><g transform="matrix(1,0,0,1,0,0)"><svg width="154.5" viewBox="1.5 -36.55 103.54 37.349999999999994" height="55.72742636407532" data-palette-color="#001f3f"><path d="M21.1-6.1L8.3-6.1 8.3-11.6 21.1-11.6 21.1-6.1ZM10.35-35.75L17.15-35.75 8.35 0 1.5 0 10.35-35.75ZM10.45-35.75L17.25-35.75 26.1 0 19.3 0 10.45-35.75ZM36.8-9.3L29.75-9.3 29.75-26.45 36.8-26.45 36.8-9.3ZM36.8-26.45L29.75-26.45Q29.75-29.35 31.2-31.65 32.65-33.95 35.17-35.25 37.7-36.55 40.9-36.55L40.9-36.55 40.9-31.05Q39-31.05 37.9-29.85 36.8-28.65 36.8-26.45L36.8-26.45ZM29.75-9.35L29.75-9.35 36.8-9.35Q36.8-7.15 37.9-5.93 39-4.7 40.9-4.7L40.9-4.7 40.9 0.8Q37.7 0.8 35.17-0.53 32.65-1.85 31.2-4.13 29.75-6.4 29.75-9.35ZM52.2-26L45.85-24.85Q45.65-27.75 44.32-29.4 43-31.05 40.85-31.05L40.85-31.05 40.85-36.55Q45.7-36.55 48.67-33.77 51.65-31 52.2-26L52.2-26ZM45.85-10.9L45.85-10.9 52.2-9.8Q51.65-4.8 48.67-2 45.7 0.8 40.85 0.8L40.85 0.8 40.85-4.7Q43-4.7 44.32-6.35 45.65-8 45.85-10.9ZM78.65-9.35L71.6-9.35 71.6-26.45 78.65-26.45 78.65-9.35ZM63.5-9.35L56.45-9.35 56.45-26.45 63.5-26.45 63.5-9.35ZM78.65-26.4L78.65-26.4 71.6-26.4Q71.6-28.6 70.5-29.8 69.4-31 67.5-31L67.5-31 67.5-36.5Q70.7-36.5 73.22-35.2 75.75-33.9 77.2-31.6 78.65-29.3 78.65-26.4ZM63.5-26.4L56.45-26.4Q56.45-29.3 57.9-31.6 59.35-33.9 61.87-35.2 64.4-36.5 67.6-36.5L67.6-36.5 67.6-31Q65.7-31 64.6-29.8 63.5-28.6 63.5-26.4L63.5-26.4ZM71.6-9.4L78.65-9.4Q78.65-6.45 77.2-4.17 75.75-1.9 73.22-0.58 70.7 0.75 67.5 0.75L67.5 0.75 67.5-4.75Q69.4-4.75 70.5-5.98 71.6-7.2 71.6-9.4L71.6-9.4ZM56.45-9.4L56.45-9.4 63.5-9.4Q63.5-7.2 64.6-5.98 65.7-4.75 67.6-4.75L67.6-4.75 67.6 0.75Q64.4 0.75 61.87-0.58 59.35-1.9 57.9-4.17 56.45-6.45 56.45-9.4ZM105.04-30.25L81.79-30.25 81.79-35.75 105.04-35.75 105.04-30.25ZM96.94 0L89.89 0 89.89-35.75 96.94-35.75 96.94 0Z" opacity="1" transform="matrix(1,0,0,1,0,0)" fill="#001f3f" class="wordmark-text-0" data-fill-palette-color="primary" id="text-0"></path></svg></g></svg></g></svg></g></svg></g></svg></g><defs></defs></svg><rect width="154.5" height="55.72742636407532" fill="none" stroke="none" visibility="hidden"></rect></g></svg></g></svg>