<svg xmlns="http://www.w3.org/2000/svg" version="1.1" xmlns:xlink="http://www.w3.org/1999/xlink" xmlns:svgjs="http://svgjs.dev/svgjs" width="2000" height="924" viewBox="0 0 2000 924"><g transform="matrix(1,0,0,1,-1.2121212121212466,-0.5701072974132444)"><svg viewBox="0 0 396 183" data-background-color="#ffffff" preserveAspectRatio="xMidYMid meet" height="924" width="2000" xmlns="http://www.w3.org/2000/svg" xmlns:xlink="http://www.w3.org/1999/xlink"><g id="tight-bounds" transform="matrix(1,0,0,1,0.2400000000000091,0.11291086085132918)"><svg viewBox="0 0 395.52 182.77417827829734" height="182.77417827829734" width="395.52"><g><svg viewBox="0 0 395.52 182.77417827829734" height="182.77417827829734" width="395.52"><g><svg viewBox="0 0 395.52 182.77417827829734" height="182.77417827829734" width="395.52"><g id="textblocktransform"><svg viewBox="0 0 395.52 182.77417827829734" height="182.77417827829734" width="395.52" id="textblock"><g><svg viewBox="0 0 395.52 182.77417827829734" height="182.77417827829734" width="395.52"><g transform="matrix(1,0,0,1,0,0)"><svg width="395.52" viewBox="1 -36.5 261.95 118" height="182.77417827829734" data-palette-color="#001f3f"><svg></svg><svg></svg><svg></svg><g class="wordmark-text-0" data-fill-palette-color="primary" id="text-0"><path d="M21.1-6.1h-12.8v-5.5h12.8zM10.35-35.75h6.8l-8.8 35.75h-6.85zM10.45-35.75h6.8l8.85 35.75h-6.8zM47.5 0h-12.1v-5.5h12.1zM36.9 0h-7.05v-35.75h7.05zM68.85 0h-5.35l7.8-35.75h5.35zM68.65 0h-5.35l-7.8-35.75h5.35zM58.55 0h-7.05v-35.75h7.05zM80.65 0h-7.05v-35.75h7.05zM108.6-9.35h-7.05v-17.1h7.05zM93.45-9.35h-7.05v-17.1h7.05zM108.6-26.4v0h-7.05c0-1.467-0.367-2.6-1.1-3.4-0.733-0.8-1.733-1.2-3-1.2v0-5.5c2.133 0 4.043 0.433 5.73 1.3 1.68 0.867 3.003 2.067 3.97 3.6 0.967 1.533 1.45 3.267 1.45 5.2zM93.45-26.4h-7.05c0-1.933 0.483-3.667 1.45-5.2 0.967-1.533 2.293-2.733 3.98-3.6 1.68-0.867 3.587-1.3 5.72-1.3v0 5.5c-1.267 0-2.267 0.4-3 1.2-0.733 0.8-1.1 1.933-1.1 3.4zM101.55-9.4h7.05c0 1.967-0.483 3.71-1.45 5.23-0.967 1.513-2.29 2.71-3.97 3.59-1.687 0.887-3.597 1.33-5.73 1.33v0-5.5c1.267 0 2.267-0.41 3-1.23 0.733-0.813 1.1-1.953 1.1-3.42zM86.4-9.4v0h7.05c0 1.467 0.367 2.607 1.1 3.42 0.733 0.82 1.733 1.23 3 1.23v0 5.5c-2.133 0-4.04-0.443-5.72-1.33-1.687-0.88-3.013-2.077-3.98-3.59-0.967-1.52-1.45-3.263-1.45-5.23zM135.9 0h-6.15l-14.2-35.75h6.15zM121.4 0h-7.05v-35.75h7.05zM138.5 0h-7.05v-35.75h7.05zM165.65-10.05h-7.05v-15.6h7.05zM154.55 0h-3.95v-5.5h3.95zM154.55-30.25h-3.95v-5.5h3.95zM154.55-30.25h-3.95v-5.5h3.95zM165.65-25.65v0h-7.05c0-1.467-0.357-2.6-1.07-3.4-0.72-0.8-1.713-1.2-2.98-1.2v0-5.5c2.133 0 4.033 0.433 5.7 1.3 1.667 0.867 2.983 2.067 3.95 3.6 0.967 1.533 1.45 3.267 1.45 5.2zM158.6-10.15h7.05c0 1.967-0.483 3.707-1.45 5.22-0.967 1.52-2.283 2.72-3.95 3.6-1.667 0.887-3.567 1.33-5.7 1.33v0-5.5c1.267 0 2.26-0.41 2.98-1.23 0.713-0.813 1.07-1.953 1.07-3.42zM151.7 0h-7.05v-35.75h7.05z" fill="#001f3f" fill-rule="nonzero" stroke="none" stroke-width="1" stroke-linecap="butt" stroke-linejoin="miter" stroke-miterlimit="10" stroke-dasharray="" stroke-dashoffset="0" font-family="none" font-weight="none" font-size="none" text-anchor="none" style="mix-blend-mode: normal" data-fill-palette-color="primary" opacity="1"></path><path d="M9.55 31.05h-7.05v-17.15h7.05zM9.55 13.9h-7.05c0-1.933 0.483-3.667 1.45-5.2 0.967-1.533 2.293-2.733 3.98-3.6 1.68-0.867 3.587-1.3 5.72-1.3v0 5.5c-1.267 0-2.267 0.4-3 1.2-0.733 0.8-1.1 1.933-1.1 3.4zM2.5 31v0h7.05c0 1.467 0.367 2.607 1.1 3.42 0.733 0.82 1.733 1.23 3 1.23v0 5.5c-2.133 0-4.04-0.443-5.72-1.33-1.687-0.88-3.013-2.08-3.98-3.6-0.967-1.513-1.45-3.253-1.45-5.22zM24.95 14.35l-6.35 1.15c-0.133-1.933-0.643-3.45-1.53-4.55-0.88-1.1-2.037-1.65-3.47-1.65v0-5.5c3.233 0 5.843 0.927 7.83 2.78 1.98 1.847 3.153 4.437 3.52 7.77zM18.6 29.45v0l6.35 1.1c-0.367 3.333-1.54 5.933-3.52 7.8-1.987 1.867-4.597 2.8-7.83 2.8v0-5.5c1.433 0 2.59-0.55 3.47-1.65 0.887-1.1 1.397-2.617 1.53-4.55zM51.4 31h-7.05v-17.1h7.05zM36.25 31h-7.05v-17.1h7.05zM51.4 13.95v0h-7.05c0-1.467-0.367-2.6-1.1-3.4-0.733-0.8-1.733-1.2-3-1.2v0-5.5c2.133 0 4.043 0.433 5.73 1.3 1.68 0.867 3.003 2.067 3.97 3.6 0.967 1.533 1.45 3.267 1.45 5.2zM36.25 13.95h-7.05c0-1.933 0.483-3.667 1.45-5.2 0.967-1.533 2.293-2.733 3.98-3.6 1.68-0.867 3.587-1.3 5.72-1.3v0 5.5c-1.267 0-2.267 0.4-3 1.2-0.733 0.8-1.1 1.933-1.1 3.4zM44.35 30.95h7.05c0 1.967-0.483 3.71-1.45 5.23-0.967 1.513-2.29 2.71-3.97 3.59-1.687 0.887-3.597 1.33-5.73 1.33v0-5.5c1.267 0 2.267-0.41 3-1.23 0.733-0.813 1.1-1.953 1.1-3.42zM29.2 30.95v0h7.05c0 1.467 0.367 2.607 1.1 3.42 0.733 0.82 1.733 1.23 3 1.23v0 5.5c-2.133 0-4.04-0.443-5.72-1.33-1.687-0.88-3.013-2.077-3.98-3.59-0.967-1.52-1.45-3.263-1.45-5.23zM74.8 40.35h-12.1v-5.5h12.1zM64.2 40.35h-7.05v-35.75h7.05zM96.45 40.35h-12.1v-5.5h12.1zM85.85 40.35h-7.05v-35.75h7.05zM118.6 40.35h-13.1v-5.5h13.1zM115.6 25.25h-9.85v-5.55h9.85zM100.45 40.35v-35.75h7.05v35.75zM106 10.1v-5.5h12.1v5.5zM145.3 26.1h-11.7v-5.5h11.7zM145.3 31.05h-7.05v-10.3h7.05zM130.15 31.05h-7.05v-17.15h7.05zM130.15 13.9h-7.05c0-1.933 0.483-3.667 1.45-5.2 0.967-1.533 2.293-2.733 3.98-3.6 1.68-0.867 3.587-1.3 5.72-1.3v0 5.5c-1.267 0-2.267 0.4-3 1.2-0.733 0.8-1.1 1.933-1.1 3.4zM123.1 31v0h7.05c0 1.467 0.367 2.607 1.1 3.42 0.733 0.82 1.733 1.23 3 1.23v0 5.5c-2.133 0-4.04-0.443-5.72-1.33-1.687-0.88-3.013-2.08-3.98-3.6-0.967-1.513-1.45-3.253-1.45-5.22zM145.55 14.35l-6.35 1.15c-0.133-1.933-0.64-3.45-1.52-4.55-0.887-1.1-2.047-1.65-3.48-1.65v0-5.5c3.233 0 5.843 0.927 7.83 2.78 1.98 1.847 3.153 4.437 3.52 7.77zM138.25 31h7.05c0 1.967-0.483 3.707-1.45 5.22-0.967 1.52-2.283 2.72-3.95 3.6-1.667 0.887-3.567 1.33-5.7 1.33v0-5.5c1.267 0 2.26-0.41 2.98-1.23 0.713-0.813 1.07-1.953 1.07-3.42zM169.45 40.35h-13.1v-5.5h13.1zM166.45 25.25h-9.85v-5.55h9.85zM151.3 40.35v-35.75h7.05v35.75zM156.85 10.1v-5.5h12.1v5.5zM206.55 31h-7.05v-17.1h7.05zM191.4 31h-7.05v-17.1h7.05zM206.55 13.95v0h-7.05c0-1.467-0.367-2.6-1.1-3.4-0.733-0.8-1.733-1.2-3-1.2v0-5.5c2.133 0 4.043 0.433 5.73 1.3 1.68 0.867 3.003 2.067 3.97 3.6 0.967 1.533 1.45 3.267 1.45 5.2zM191.4 13.95h-7.05c0-1.933 0.483-3.667 1.45-5.2 0.967-1.533 2.293-2.733 3.98-3.6 1.68-0.867 3.587-1.3 5.72-1.3v0 5.5c-1.267 0-2.267 0.4-3 1.2-0.733 0.8-1.1 1.933-1.1 3.4zM199.5 30.95h7.05c0 1.967-0.483 3.71-1.45 5.23-0.967 1.513-2.29 2.71-3.97 3.59-1.687 0.887-3.597 1.33-5.73 1.33v0-5.5c1.267 0 2.267-0.41 3-1.23 0.733-0.813 1.1-1.953 1.1-3.42zM184.35 30.95v0h7.05c0 1.467 0.367 2.607 1.1 3.42 0.733 0.82 1.733 1.23 3 1.23v0 5.5c-2.133 0-4.04-0.443-5.72-1.33-1.687-0.88-3.013-2.077-3.98-3.59-0.967-1.52-1.45-3.263-1.45-5.23zM227.45 25.25h-9.85v-5.55h9.85zM212.3 40.35v-35.75h7.05v35.75zM217.85 10.1v-5.5h12.1v5.5z" fill="#001f3f" fill-rule="nonzero" stroke="none" stroke-width="1" stroke-linecap="butt" stroke-linejoin="miter" stroke-miterlimit="10" stroke-dasharray="" stroke-dashoffset="0" font-family="none" font-weight="none" font-size="none" text-anchor="none" style="mix-blend-mode: normal" data-fill-palette-color="primary" opacity="1"></path><path d="M24.25 50.45h-23.25v-5.5h23.25zM16.15 80.7h-7.05v-35.75h7.05zM46.4 80.7h-13.1v-5.5h13.1zM43.4 65.6h-9.85v-5.55h9.85zM28.25 80.7v-35.75h7.05v35.75zM33.8 50.45v-5.5h12.1v5.5zM57.95 71.4h-7.05v-17.15h7.05zM57.95 54.25h-7.05c0-1.933 0.483-3.667 1.45-5.2 0.967-1.533 2.293-2.733 3.98-3.6 1.68-0.867 3.587-1.3 5.72-1.3v0 5.5c-1.267 0-2.267 0.4-3 1.2-0.733 0.8-1.1 1.933-1.1 3.4zM50.9 71.35v0h7.05c0 1.467 0.367 2.607 1.1 3.42 0.733 0.82 1.733 1.23 3 1.23v0 5.5c-2.133 0-4.04-0.443-5.72-1.33-1.687-0.88-3.013-2.08-3.98-3.6-0.967-1.513-1.45-3.253-1.45-5.22zM73.35 54.7l-6.35 1.15c-0.133-1.933-0.64-3.45-1.52-4.55-0.887-1.1-2.047-1.65-3.48-1.65v0-5.5c3.233 0 5.843 0.927 7.83 2.78 1.98 1.847 3.153 4.437 3.52 7.77zM67 69.8v0l6.35 1.1c-0.367 3.333-1.54 5.933-3.52 7.8-1.987 1.867-4.597 2.8-7.83 2.8v0-5.5c1.433 0 2.593-0.55 3.48-1.65 0.88-1.1 1.387-2.617 1.52-4.55zM95.65 65.6h-15.3v-5.5h15.3zM100.2 80.7h-7.05v-35.75h7.05zM84.9 80.7h-7.05v-35.75h7.05zM127.9 80.7h-6.15l-14.2-35.75h6.15zM113.4 80.7h-7.05v-35.75h7.05zM130.5 80.7h-7.05v-35.75h7.05zM158.45 71.35h-7.05v-17.1h7.05zM143.3 71.35h-7.05v-17.1h7.05zM158.45 54.3v0h-7.05c0-1.467-0.367-2.6-1.1-3.4-0.733-0.8-1.733-1.2-3-1.2v0-5.5c2.133 0 4.043 0.433 5.73 1.3 1.68 0.867 3.003 2.067 3.97 3.6 0.967 1.533 1.45 3.267 1.45 5.2zM143.3 54.3h-7.05c0-1.933 0.483-3.667 1.45-5.2 0.967-1.533 2.293-2.733 3.98-3.6 1.68-0.867 3.587-1.3 5.72-1.3v0 5.5c-1.267 0-2.267 0.4-3 1.2-0.733 0.8-1.1 1.933-1.1 3.4zM151.4 71.3h7.05c0 1.967-0.483 3.71-1.45 5.23-0.967 1.513-2.29 2.71-3.97 3.59-1.687 0.887-3.597 1.33-5.73 1.33v0-5.5c1.267 0 2.267-0.41 3-1.23 0.733-0.813 1.1-1.953 1.1-3.42zM136.25 71.3v0h7.05c0 1.467 0.367 2.607 1.1 3.42 0.733 0.82 1.733 1.23 3 1.23v0 5.5c-2.133 0-4.04-0.443-5.72-1.33-1.687-0.88-3.013-2.077-3.98-3.59-0.967-1.52-1.45-3.263-1.45-5.23zM181.85 80.7h-12.1v-5.5h12.1zM171.25 80.7h-7.05v-35.75h7.05zM207.8 71.35h-7.05v-17.1h7.05zM192.65 71.35h-7.05v-17.1h7.05zM207.8 54.3v0h-7.05c0-1.467-0.367-2.6-1.1-3.4-0.733-0.8-1.733-1.2-3-1.2v0-5.5c2.133 0 4.043 0.433 5.73 1.3 1.68 0.867 3.003 2.067 3.97 3.6 0.967 1.533 1.45 3.267 1.45 5.2zM192.65 54.3h-7.05c0-1.933 0.483-3.667 1.45-5.2 0.967-1.533 2.293-2.733 3.98-3.6 1.68-0.867 3.587-1.3 5.72-1.3v0 5.5c-1.267 0-2.267 0.4-3 1.2-0.733 0.8-1.1 1.933-1.1 3.4zM200.75 71.3h7.05c0 1.967-0.483 3.71-1.45 5.23-0.967 1.513-2.29 2.71-3.97 3.59-1.687 0.887-3.597 1.33-5.73 1.33v0-5.5c1.267 0 2.267-0.41 3-1.23 0.733-0.813 1.1-1.953 1.1-3.42zM185.6 71.3v0h7.05c0 1.467 0.367 2.607 1.1 3.42 0.733 0.82 1.733 1.23 3 1.23v0 5.5c-2.133 0-4.04-0.443-5.72-1.33-1.687-0.88-3.013-2.077-3.98-3.59-0.967-1.52-1.45-3.263-1.45-5.23zM235.25 66.45h-11.7v-5.5h11.7zM235.25 71.4h-7.05v-10.3h7.05zM220.1 71.4h-7.05v-17.15h7.05zM220.1 54.25h-7.05c0-1.933 0.483-3.667 1.45-5.2 0.967-1.533 2.293-2.733 3.98-3.6 1.68-0.867 3.587-1.3 5.72-1.3v0 5.5c-1.267 0-2.267 0.4-3 1.2-0.733 0.8-1.1 1.933-1.1 3.4zM213.05 71.35v0h7.05c0 1.467 0.367 2.607 1.1 3.42 0.733 0.82 1.733 1.23 3 1.23v0 5.5c-2.133 0-4.04-0.443-5.72-1.33-1.687-0.88-3.013-2.08-3.98-3.6-0.967-1.513-1.45-3.253-1.45-5.22zM235.5 54.7l-6.35 1.15c-0.133-1.933-0.64-3.45-1.52-4.55-0.887-1.1-2.047-1.65-3.48-1.65v0-5.5c3.233 0 5.843 0.927 7.83 2.78 1.98 1.847 3.153 4.437 3.52 7.77zM228.2 71.35h7.05c0 1.967-0.483 3.707-1.45 5.22-0.967 1.52-2.283 2.72-3.95 3.6-1.667 0.887-3.567 1.33-5.7 1.33v0-5.5c1.267 0 2.26-0.41 2.98-1.23 0.713-0.813 1.07-1.953 1.07-3.42zM254.35 68.05h-6.3l8.65-23.1h6.25zM254.35 80.7h-6.3v-12.65h6.3zM254.35 68.05h-6.3l-8.65-23.1h7.45z" fill="#001f3f" fill-rule="nonzero" stroke="none" stroke-width="1" stroke-linecap="butt" stroke-linejoin="miter" stroke-miterlimit="10" stroke-dasharray="" stroke-dashoffset="0" font-family="none" font-weight="none" font-size="none" text-anchor="none" style="mix-blend-mode: normal" data-fill-palette-color="primary" opacity="1"></path></g></svg></g></svg></g></svg></g></svg></g></svg></g><defs></defs></svg><rect width="395.52" height="182.77417827829734" fill="none" stroke="none" visibility="hidden"></rect></g></svg></g></svg>