<svg width="30" height="24" viewBox="0 0 30 24" fill="none" xmlns="http://www.w3.org/2000/svg">
<path d="M27.5881 20.1474C27.5871 20.545 27.4362 20.9275 27.1655 21.2187C26.8949 21.51 26.5244 21.6885 26.128 21.7186C23.2995 21.9206 20.0587 22.6175 18.1966 23.7673C22.7258 23.3104 29.5371 22.5715 29.5371 22.5715V2.14442C29.5371 2.14442 28.7679 2.0433 27.5881 1.95145V20.1474Z" fill="#FFFFFF"/>
<path d="M15.463 4.62939C15.4534 4.65942 15.4486 4.69077 15.4487 4.72229L15.4486 23.6312C15.4483 23.7072 15.4716 23.7815 15.5152 23.8437C15.5589 23.9059 15.6207 23.9531 15.6923 23.9786C15.7639 24.0042 15.8416 24.0069 15.9148 23.9864C15.988 23.9659 16.053 23.9232 16.1009 23.8642C18.2998 21.1166 24.679 20.5206 26.0348 20.4237C26.1045 20.4187 26.1696 20.3874 26.217 20.336C26.2644 20.2847 26.2905 20.2173 26.29 20.1474V0.27731C26.2901 0.239134 26.2822 0.201361 26.267 0.166363C26.2517 0.131365 26.2294 0.0998967 26.2014 0.0739328C26.1734 0.047969 26.1404 0.0280703 26.1043 0.0154852C26.0683 0.00290017 26.03 -0.00209934 25.992 0.00080022C24.3733 0.121968 16.6683 0.891924 15.463 4.62939Z" fill="#FFFFFF"/>
<path d="M3.40958 21.7186C3.01304 21.6886 2.64241 21.5102 2.37163 21.2189C2.10086 20.9277 1.94987 20.5451 1.94879 20.1474V1.95148C0.769057 2.04334 0 2.14445 0 2.14445V22.5715C0 22.5715 6.81132 23.3104 11.3406 23.7673C9.47856 22.6176 6.23792 21.9206 3.40958 21.7186Z" fill="#FFFFFF"/>
<path d="M3.54516 0.000801189C3.50709 -0.00210023 3.46884 0.00289799 3.43279 0.0154821C3.39675 0.0280662 3.36369 0.0479646 3.3357 0.0739285C3.30771 0.0998924 3.28539 0.131361 3.27014 0.16636C3.25489 0.20136 3.24704 0.239133 3.24708 0.277311V20.1474C3.24656 20.2172 3.27266 20.2847 3.32006 20.336C3.36746 20.3873 3.43261 20.4187 3.50229 20.4237C4.8581 20.5206 11.2373 21.1166 13.4362 23.8641C13.4841 23.9232 13.5491 23.9659 13.6223 23.9864C13.6955 24.0069 13.7732 24.0042 13.8448 23.9786C13.9164 23.953 13.9783 23.9059 14.0219 23.8437C14.0655 23.7814 14.0888 23.7072 14.0885 23.6312L14.0884 4.72227C14.0885 4.69074 14.0837 4.6594 14.0742 4.62936C12.8688 0.891925 5.16377 0.121969 3.54516 0.000801189Z" fill="#FFFFFF"/>
</svg>
