<svg width="26" height="24" viewBox="0 0 26 24" fill="none" xmlns="http://www.w3.org/2000/svg">
<path d="M15.5556 6.57779H19.8667L19.2889 3.51112C18.8444 3.55556 18.4 3.42223 18 3.15556C17.6 2.8889 17.3333 2.53334 17.2 2.0889L5.06667 4.35556C5.06667 4.71112 4.93334 5.06668 4.71111 5.37779C4.48889 5.6889 4.22222 5.91112 3.86667 6.0889L3.95556 6.57779H8.44445C8.66667 5.11112 9.82222 3.86668 11.3333 3.60001C13.2889 3.24445 15.1556 4.53334 15.5111 6.4889C15.5556 6.4889 15.5556 6.53334 15.5556 6.57779Z" fill="#FFFFFF"/>
<path d="M11.5556 4.44444C10.4445 4.66666 9.60002 5.51111 9.42224 6.57777H14.7111C14.3556 5.15555 12.9778 4.17777 11.5556 4.44444Z" fill="#FFFFFF"/>
<path d="M13.0667 9.60002L22.0889 9.55557H24.0444V9.06669C24.0444 8.22224 23.3778 7.51113 22.4889 7.42224H22.4444H22.4H20.4H15.1556H8.88889H3.64444H1.64444C1.6 7.42224 1.55556 7.42224 1.51111 7.42224C0.666667 7.46669 0 8.22224 0 9.06669V9.64446L12.2222 9.60002H13.0667Z" fill="#FFFFFF"/>
<path d="M3.11112 6.57778L2.97779 5.86667C2.93334 5.64444 3.11112 5.37778 3.33334 5.33333C3.64445 5.28889 3.86668 5.11111 4.04445 4.88889C4.22223 4.66667 4.26668 4.35556 4.22223 4.04444C4.22223 3.91111 4.22223 3.82222 4.31112 3.73333C4.40001 3.64444 4.4889 3.55556 4.57779 3.55556L17.5111 1.15556C17.6445 1.11111 17.7778 1.15556 17.8667 1.24444C17.9556 1.33333 18.0445 1.42222 18.0445 1.55556C18.0445 1.6 18.0445 1.68889 18.0445 1.73333C18.0889 2 18.2667 2.26667 18.4889 2.44444C18.7111 2.62222 19.0222 2.66667 19.3333 2.62222C19.3778 2.62222 19.4667 2.57778 19.5111 2.57778C19.6445 2.53333 19.7778 2.57778 19.8667 2.62222C19.9556 2.66667 20.0445 2.8 20.0889 2.93333L20.7556 6.57778H22L20.7556 0L1.33334 3.55556L1.91112 6.57778H3.11112Z" fill="#FFFFFF"/>
<path d="M0.0444336 21.8222V22.3555C0.0444336 23.2889 0.755545 24 1.64443 24H22.4C23.2889 24 24.0444 23.2889 24.0444 22.3555V21.6889L8.3111 21.7778L0.0444336 21.8222Z" fill="#FFFFFF"/>
<path d="M24.4889 13.5556H19.9111C19.3333 13.5556 18.7555 13.7778 18.3555 14.1778C17.9555 14.5778 17.6889 15.1556 17.6889 15.7333C17.6889 16.9333 18.6667 17.9111 19.8667 17.9111H24.4444H25.4667V13.5111H24.4889V13.5556ZM20.1778 17.4222C19.2444 17.4222 18.4889 16.6667 18.4889 15.7333C18.4889 14.8 19.2444 14.0444 20.1778 14.0444C21.1111 14.0444 21.8667 14.8 21.8667 15.7333C21.8667 16.6667 21.1111 17.4222 20.1778 17.4222Z" fill="#FFFFFF"/>
<path d="M20.1778 16.5333C20.6196 16.5333 20.9778 16.1751 20.9778 15.7333C20.9778 15.2915 20.6196 14.9333 20.1778 14.9333C19.7359 14.9333 19.3778 15.2915 19.3778 15.7333C19.3778 16.1751 19.7359 16.5333 20.1778 16.5333Z" fill="#FFFFFF"/>
<path d="M16.8 15.7333C16.8 14.9333 17.1111 14.1333 17.6889 13.5556C18.2667 12.9778 19.0222 12.6667 19.8667 12.6667H24V10.4889L12.0444 10.5333H11.0222L1.77777 10.5778H0.0444336V20.9778L15.7778 20.8889L24.0444 20.8444V18.8444H19.9111C18.1778 18.8444 16.8 17.4222 16.8 15.7333Z" fill="#FFFFFF"/>
</svg>
