<svg width="24" height="24" viewBox="0 0 24 24" fill="none" xmlns="http://www.w3.org/2000/svg">
<path d="M24 23.6129C24 23.7156 23.9592 23.814 23.8866 23.8866C23.814 23.9592 23.7156 24 23.6129 24H0.387097C0.284432 24 0.185973 23.9592 0.113378 23.8866C0.0407833 23.814 0 23.7156 0 23.6129C0 23.5102 0.0407833 23.4118 0.113378 23.3392C0.185973 23.2666 0.284432 23.2258 0.387097 23.2258H1.93548V11.2258C1.93548 11.1231 1.97627 11.0247 2.04886 10.9521C2.12146 10.8795 2.21992 10.8387 2.32258 10.8387H5.41935C5.52202 10.8387 5.62048 10.8795 5.69307 10.9521C5.76567 11.0247 5.80645 11.1231 5.80645 11.2258V23.2258H7.35484V13.9355C7.35484 13.8328 7.39562 13.7344 7.46822 13.6618C7.54081 13.5892 7.63927 13.5484 7.74194 13.5484H10.8387C10.9414 13.5484 11.0398 13.5892 11.1124 13.6618C11.185 13.7344 11.2258 13.8328 11.2258 13.9355V23.2258H12.7742V8.90323C12.7742 8.80056 12.815 8.7021 12.8876 8.62951C12.9602 8.55691 13.0586 8.51613 13.1613 8.51613H16.2581C16.3607 8.51613 16.4592 8.55691 16.5318 8.62951C16.6044 8.7021 16.6452 8.80056 16.6452 8.90323V23.2258H18.1935V5.03226C18.1935 4.92959 18.2343 4.83113 18.3069 4.75854C18.3795 4.68595 18.478 4.64516 18.5806 4.64516H21.6774C21.7801 4.64516 21.8785 4.68595 21.9511 4.75854C22.0237 4.83113 22.0645 4.92959 22.0645 5.03226V23.2258H23.6129C23.7156 23.2258 23.814 23.2666 23.8866 23.3392C23.9592 23.4118 24 23.5102 24 23.6129ZM3.87097 9.29032C4.09157 9.28962 4.30944 9.24149 4.50981 9.1492C4.71018 9.0569 4.88835 8.9226 5.03226 8.75539L7.77724 10.1279C7.72225 10.3727 7.72752 10.6271 7.79259 10.8695C7.85766 11.1118 7.98059 11.3346 8.15082 11.5189C8.32104 11.7032 8.53347 11.8435 8.76985 11.9275C9.00623 12.0116 9.25949 12.0371 9.50787 12.0016C9.75624 11.9662 9.99231 11.8711 10.1958 11.7243C10.3993 11.5775 10.564 11.3835 10.676 11.159C10.7879 10.9345 10.8437 10.6861 10.8385 10.4353C10.8333 10.1844 10.7672 9.93863 10.646 9.71896L13.8785 6.72147C14.1522 6.89917 14.4753 6.98538 14.8011 6.96765C15.127 6.94992 15.4388 6.82919 15.6916 6.62284C15.9444 6.4165 16.1252 6.13521 16.2078 5.81951C16.2905 5.50382 16.2708 5.17004 16.1515 4.86627L19.1399 2.72977C19.4159 2.9652 19.7663 3.09524 20.129 3.09677C20.4353 3.09677 20.7346 3.00596 20.9893 2.83582C21.2439 2.66569 21.4424 2.42386 21.5596 2.14093C21.6767 1.858 21.7074 1.54667 21.6477 1.24631C21.5879 0.945955 21.4405 0.670059 21.2239 0.453513C21.0074 0.236967 20.7315 0.0894974 20.4311 0.0297525C20.1307 -0.0299923 19.8194 0.000670887 19.5365 0.117865C19.2536 0.235058 19.0117 0.433519 18.8416 0.68815C18.6715 0.942781 18.5806 1.24215 18.5806 1.54839C18.5817 1.73775 18.6179 1.92527 18.6872 2.10147L15.6988 4.23797C15.4229 4.00253 15.0724 3.8725 14.7097 3.87097C14.2991 3.87137 13.9055 4.03463 13.6152 4.32492C13.325 4.61521 13.1617 5.00882 13.1613 5.41936C13.1631 5.67588 13.2293 5.92783 13.354 6.15201L10.1215 9.1495C9.81089 8.94781 9.43753 8.86589 9.07098 8.91899C8.70443 8.97209 8.36967 9.1566 8.12903 9.43816L5.38405 8.06567C5.45087 7.75269 5.41902 7.42669 5.29291 7.13256C5.16679 6.83843 4.9526 6.59062 4.67983 6.42325C4.40705 6.25588 4.0891 6.17718 3.76975 6.19798C3.4504 6.21878 3.14534 6.33807 2.89658 6.53941C2.64782 6.74075 2.46759 7.01425 2.3807 7.32225C2.2938 7.63026 2.30452 7.95763 2.41137 8.2593C2.51822 8.56096 2.71595 8.82209 2.97734 9.00673C3.23874 9.19137 3.55094 9.29045 3.87097 9.29032Z" fill="#FFFFFF"/>
</svg>
